<?xml version="1.0" encoding="UTF-8" standalone="no"?>
<!DOCTYPE svg PUBLIC "-//W3C//DTD SVG 1.0//EN" "http://www.w3.org/TR/2001/PR-SVG-20010719/DTD/svg10.dtd">
<svg width="39cm" height="54cm" viewBox="227 1708 780 1070" xmlns="http://www.w3.org/2000/svg" xmlns:xlink="http://www.w3.org/1999/xlink">
  <g>
    <rect style="fill: #ffffff" x="228" y="1709.25" width="777.089" height="752"/>
    <rect style="fill: none; fill-opacity:0; stroke-width: 2; stroke: #000000" x="228" y="1709.25" width="777.089" height="752"/>
  </g>
  <g>
    <rect style="fill: #ffffff" x="229" y="2500.5" width="775.261" height="276"/>
    <rect style="fill: none; fill-opacity:0; stroke-width: 2; stroke: #000000" x="229" y="2500.5" width="775.261" height="276"/>
  </g>
  <g>
    <rect style="fill: #ffffff" x="302" y="2539" width="514" height="50"/>
    <rect style="fill: none; fill-opacity:0; stroke-width: 2; stroke: #000000" x="302" y="2539" width="514" height="50"/>
    <rect style="fill: #ffffff" x="302" y="2519" width="127.2" height="20"/>
    <rect style="fill: none; fill-opacity:0; stroke-width: 2; stroke: #000000" x="302" y="2519" width="127.2" height="20"/>
    <text style="fill: #000000;text-anchor:start;font-size:12.7998;font-family:monospace;font-style:normal;font-weight:normal" x="304" y="2533">test environment</text>
  </g>
  <text style="fill: #000000;text-anchor:start;font-size:12.8;font-family:sanserif;font-style:normal;font-weight:normal" x="559" y="2564">
    <tspan x="559" y="2564"></tspan>
  </text>
  <g>
    <rect style="fill: #ffffff" x="627" y="2369.34" width="361" height="50"/>
    <rect style="fill: none; fill-opacity:0; stroke-width: 2; stroke: #000000" x="627" y="2369.34" width="361" height="50"/>
    <rect style="fill: #ffffff" x="627" y="2349.34" width="150.3" height="20"/>
    <rect style="fill: none; fill-opacity:0; stroke-width: 2; stroke: #000000" x="627" y="2349.34" width="150.3" height="20"/>
    <text style="fill: #000000;text-anchor:start;font-size:12.7998;font-family:monospace;font-style:normal;font-weight:normal" x="629" y="2363.34">hardware simulation</text>
  </g>
  <g>
    <rect style="fill: #ffffff" x="299.2" y="2644" width="514.8" height="96.5"/>
    <rect style="fill: none; fill-opacity:0; stroke-width: 2; stroke: #000000" x="299.2" y="2644" width="514.8" height="96.5"/>
    <rect style="fill: #ffffff" x="299.2" y="2624" width="81" height="20"/>
    <rect style="fill: none; fill-opacity:0; stroke-width: 2; stroke: #000000" x="299.2" y="2624" width="81" height="20"/>
    <text style="fill: #000000;text-anchor:start;font-size:12.7998;font-family:monospace;font-style:normal;font-weight:normal" x="301.2" y="2638">test cases</text>
  </g>
  <g>
    <rect style="fill: #ffffff" x="630" y="2010.6" width="355.006" height="279"/>
    <rect style="fill: none; fill-opacity:0; stroke-width: 2; stroke: #000000" x="630" y="2010.6" width="355.006" height="279"/>
    <rect style="fill: #ffffff" x="630" y="1990.6" width="40" height="20"/>
    <rect style="fill: none; fill-opacity:0; stroke-width: 2; stroke: #000000" x="630" y="1990.6" width="40" height="20"/>
    <text style="fill: #000000;text-anchor:start;font-size:12.7998;font-family:monospace;font-style:normal;font-weight:normal" x="632" y="2004.6">OS</text>
  </g>
  <g>
    <rect style="fill: #ffffff" x="301.4" y="1764" width="690.961" height="192.5"/>
    <rect style="fill: none; fill-opacity:0; stroke-width: 2; stroke: #000000" x="301.4" y="1764" width="690.961" height="192.5"/>
    <rect style="fill: #ffffff" x="301.4" y="1744" width="88.7" height="20"/>
    <rect style="fill: none; fill-opacity:0; stroke-width: 2; stroke: #000000" x="301.4" y="1744" width="88.7" height="20"/>
    <text style="fill: #000000;text-anchor:start;font-size:12.7998;font-family:monospace;font-style:normal;font-weight:normal" x="303.4" y="1758">application</text>
  </g>
  <g>
    <rect style="fill: #ffffff" x="324" y="1800.5" width="642.906" height="136"/>
    <rect style="fill: none; fill-opacity:0; stroke-width: 2; stroke: #000000" x="324" y="1800.5" width="642.906" height="136"/>
    <rect style="fill: #ffffff" x="324" y="1780.5" width="150.3" height="20"/>
    <rect style="fill: none; fill-opacity:0; stroke-width: 2; stroke: #000000" x="324" y="1780.5" width="150.3" height="20"/>
    <text style="fill: #000000;text-anchor:start;font-size:12.7998;font-family:monospace;font-style:normal;font-weight:normal" x="326" y="1794.5">collect and forward</text>
  </g>
  <text style="fill: #000000;text-anchor:start;font-size:12.8;font-family:sanserif;font-style:normal;font-weight:normal" x="563" y="2476">
    <tspan x="563" y="2476">socket</tspan>
  </text>
  <g>
    <line style="fill: none; fill-opacity:0; stroke-width: 2; stroke: #000000" x1="557.929" y1="2599.71" x2="556.892" y2="2634.27"/>
    <polygon style="fill: #000000" points="558.154,2592.21 562.852,2602.36 557.929,2599.71 552.856,2602.06 "/>
    <polygon style="fill: none; fill-opacity:0; stroke-width: 2; stroke: #000000" points="558.154,2592.21 562.852,2602.36 557.929,2599.71 552.856,2602.06 "/>
    <polygon style="fill: #000000" points="556.667,2641.76 551.969,2631.62 556.892,2634.27 561.965,2631.92 "/>
    <polygon style="fill: none; fill-opacity:0; stroke-width: 2; stroke: #000000" points="556.667,2641.76 551.969,2631.62 556.892,2634.27 561.965,2631.92 "/>
  </g>
  <g>
    <line style="fill: none; fill-opacity:0; stroke-width: 2; stroke: #000000" x1="807.502" y1="2299.34" x2="807.5" y2="2359.6"/>
    <polygon style="fill: #000000" points="807.502,2291.84 812.502,2301.84 807.502,2299.34 802.502,2301.84 "/>
    <polygon style="fill: none; fill-opacity:0; stroke-width: 2; stroke: #000000" points="807.502,2291.84 812.502,2301.84 807.502,2299.34 802.502,2301.84 "/>
    <polygon style="fill: #000000" points="807.5,2367.1 802.5,2357.1 807.5,2359.6 812.5,2357.1 "/>
    <polygon style="fill: none; fill-opacity:0; stroke-width: 2; stroke: #000000" points="807.5,2367.1 802.5,2357.1 807.5,2359.6 812.5,2357.1 "/>
  </g>
  <g>
    <rect style="fill: #ffffff" x="516.462" y="1825.66" width="115.8" height="70"/>
    <rect style="fill: none; fill-opacity:0; stroke-width: 2; stroke: #000000" x="516.462" y="1825.66" width="115.8" height="70"/>
    <rect style="fill: #ffffff" x="496.462" y="1839.66" width="40" height="14"/>
    <rect style="fill: none; fill-opacity:0; stroke-width: 2; stroke: #000000" x="496.462" y="1839.66" width="40" height="14"/>
    <rect style="fill: #ffffff" x="496.462" y="1867.66" width="40" height="14"/>
    <rect style="fill: none; fill-opacity:0; stroke-width: 2; stroke: #000000" x="496.462" y="1867.66" width="40" height="14"/>
    <text style="fill: #000000;text-anchor:start;font-size:12.8;font-family:sanserif;font-style:normal;font-weight:normal" x="544.462" y="1851.56">
      <tspan x="544.462" y="1851.56">event-based</tspan>
    </text>
  </g>
  <g>
    <rect style="fill: #ffffff" x="645" y="2050.1" width="323.706" height="211.5"/>
    <rect style="fill: none; fill-opacity:0; stroke-width: 2; stroke: #000000" x="645" y="2050.1" width="323.706" height="211.5"/>
    <rect style="fill: #ffffff" x="645" y="2030.1" width="50.2" height="20"/>
    <rect style="fill: none; fill-opacity:0; stroke-width: 2; stroke: #000000" x="645" y="2030.1" width="50.2" height="20"/>
    <text style="fill: #000000;text-anchor:start;font-size:12.7998;font-family:monospace;font-style:normal;font-weight:normal" x="647" y="2044.1">TinyOS</text>
  </g>
  <g>
    <rect style="fill: #ffffff" x="702.806" y="2178.1" width="60" height="70"/>
    <rect style="fill: none; fill-opacity:0; stroke-width: 2; stroke: #000000" x="702.806" y="2178.1" width="60" height="70"/>
    <rect style="fill: #ffffff" x="682.806" y="2192.1" width="40" height="14"/>
    <rect style="fill: none; fill-opacity:0; stroke-width: 2; stroke: #000000" x="682.806" y="2192.1" width="40" height="14"/>
    <rect style="fill: #ffffff" x="682.806" y="2220.1" width="40" height="14"/>
    <rect style="fill: none; fill-opacity:0; stroke-width: 2; stroke: #000000" x="682.806" y="2220.1" width="40" height="14"/>
    <text style="fill: #000000;text-anchor:start;font-size:12.8;font-family:sanserif;font-style:normal;font-weight:normal" x="730.806" y="2204">
      <tspan x="730.806" y="2204">raw</tspan>
    </text>
  </g>
  <g>
    <rect style="fill: #ffffff" x="839.406" y="2168.1" width="84.6" height="70"/>
    <rect style="fill: none; fill-opacity:0; stroke-width: 2; stroke: #000000" x="839.406" y="2168.1" width="84.6" height="70"/>
    <rect style="fill: #ffffff" x="819.406" y="2182.1" width="40" height="14"/>
    <rect style="fill: none; fill-opacity:0; stroke-width: 2; stroke: #000000" x="819.406" y="2182.1" width="40" height="14"/>
    <rect style="fill: #ffffff" x="819.406" y="2210.1" width="40" height="14"/>
    <rect style="fill: none; fill-opacity:0; stroke-width: 2; stroke: #000000" x="819.406" y="2210.1" width="40" height="14"/>
    <text style="fill: #000000;text-anchor:start;font-size:12.8;font-family:sanserif;font-style:normal;font-weight:normal" x="867.406" y="2194">
      <tspan x="867.406" y="2194">threads</tspan>
    </text>
  </g>
  <g>
    <rect style="fill: #ffffff" x="722.806" y="2071.1" width="79.4" height="70"/>
    <rect style="fill: none; fill-opacity:0; stroke-width: 2; stroke: #000000" x="722.806" y="2071.1" width="79.4" height="70"/>
    <rect style="fill: #ffffff" x="702.806" y="2085.1" width="40" height="14"/>
    <rect style="fill: none; fill-opacity:0; stroke-width: 2; stroke: #000000" x="702.806" y="2085.1" width="40" height="14"/>
    <rect style="fill: #ffffff" x="702.806" y="2113.1" width="40" height="14"/>
    <rect style="fill: none; fill-opacity:0; stroke-width: 2; stroke: #000000" x="702.806" y="2113.1" width="40" height="14"/>
    <text style="fill: #000000;text-anchor:start;font-size:12.8;font-family:sanserif;font-style:normal;font-weight:normal" x="750.806" y="2097">
      <tspan x="750.806" y="2097">TC-PAL</tspan>
    </text>
  </g>
  <g>
    <rect style="fill: #ffffff" x="671.562" y="1826.16" width="121.25" height="70"/>
    <rect style="fill: none; fill-opacity:0; stroke-width: 2; stroke: #000000" x="671.562" y="1826.16" width="121.25" height="70"/>
    <rect style="fill: #ffffff" x="651.562" y="1840.16" width="40" height="14"/>
    <rect style="fill: none; fill-opacity:0; stroke-width: 2; stroke: #000000" x="651.562" y="1840.16" width="40" height="14"/>
    <rect style="fill: #ffffff" x="651.562" y="1868.16" width="40" height="14"/>
    <rect style="fill: none; fill-opacity:0; stroke-width: 2; stroke: #000000" x="651.562" y="1868.16" width="40" height="14"/>
    <text style="fill: #000000;text-anchor:start;font-size:12.8;font-family:sanserif;font-style:normal;font-weight:normal" x="699.562" y="1852.06">
      <tspan x="699.562" y="1852.06">thread-based</tspan>
    </text>
  </g>
  <g>
    <rect style="fill: #ffffff" x="842.662" y="1829.16" width="102.2" height="70"/>
    <rect style="fill: none; fill-opacity:0; stroke-width: 2; stroke: #000000" x="842.662" y="1829.16" width="102.2" height="70"/>
    <rect style="fill: #ffffff" x="822.662" y="1843.16" width="40" height="14"/>
    <rect style="fill: none; fill-opacity:0; stroke-width: 2; stroke: #000000" x="822.662" y="1843.16" width="40" height="14"/>
    <rect style="fill: #ffffff" x="822.662" y="1871.16" width="40" height="14"/>
    <rect style="fill: none; fill-opacity:0; stroke-width: 2; stroke: #000000" x="822.662" y="1871.16" width="40" height="14"/>
    <text style="fill: #000000;text-anchor:start;font-size:12.8;font-family:sanserif;font-style:normal;font-weight:normal" x="870.662" y="1855.06">
      <tspan x="870.662" y="1855.06">generated</tspan>
    </text>
  </g>
  <g>
    <line style="fill: none; fill-opacity:0; stroke-width: 2; stroke: #000000" x1="579.125" y1="1904.15" x2="728.043" y2="2169.61"/>
    <polygon style="fill: #000000" points="575.456,1897.61 584.709,1903.88 579.125,1904.15 575.988,1908.77 "/>
    <polygon style="fill: none; fill-opacity:0; stroke-width: 2; stroke: #000000" points="575.456,1897.61 584.709,1903.88 579.125,1904.15 575.988,1908.77 "/>
    <polygon style="fill: #000000" points="731.712,2176.15 722.459,2169.87 728.043,2169.61 731.18,2164.98 "/>
    <polygon style="fill: none; fill-opacity:0; stroke-width: 2; stroke: #000000" points="731.712,2176.15 722.459,2169.87 728.043,2169.61 731.18,2164.98 "/>
  </g>
  <g>
    <line style="fill: none; fill-opacity:0; stroke-width: 2; stroke: #000000" x1="736.879" y1="1904.69" x2="877.015" y2="2159.57"/>
    <polygon style="fill: #000000" points="733.265,1898.12 742.465,1904.47 736.879,1904.69 733.702,1909.29 "/>
    <polygon style="fill: none; fill-opacity:0; stroke-width: 2; stroke: #000000" points="733.265,1898.12 742.465,1904.47 736.879,1904.69 733.702,1909.29 "/>
    <polygon style="fill: #000000" points="880.629,2166.14 871.429,2159.79 877.015,2159.57 880.192,2154.97 "/>
    <polygon style="fill: none; fill-opacity:0; stroke-width: 2; stroke: #000000" points="880.629,2166.14 871.429,2159.79 877.015,2159.57 880.192,2154.97 "/>
  </g>
  <g>
    <line style="fill: none; fill-opacity:0; stroke-width: 2; stroke: #000000" x1="887.854" y1="1906.89" x2="768.414" y2="2063.36"/>
    <polygon style="fill: #000000" points="892.405,1900.93 890.312,1911.92 887.854,1906.89 882.363,1905.85 "/>
    <polygon style="fill: none; fill-opacity:0; stroke-width: 2; stroke: #000000" points="892.405,1900.93 890.312,1911.92 887.854,1906.89 882.363,1905.85 "/>
    <polygon style="fill: #000000" points="763.863,2069.32 765.956,2058.34 768.414,2063.36 773.905,2064.41 "/>
    <polygon style="fill: none; fill-opacity:0; stroke-width: 2; stroke: #000000" points="763.863,2069.32 765.956,2058.34 768.414,2063.36 773.905,2064.41 "/>
  </g>
  <g>
    <line style="fill: none; fill-opacity:0; stroke-width: 2; stroke: #000000" x1="756.411" y1="2148.69" x2="738.901" y2="2170.51"/>
    <polygon style="fill: #000000" points="761.106,2142.84 758.746,2153.77 756.411,2148.69 750.947,2147.51 "/>
    <polygon style="fill: none; fill-opacity:0; stroke-width: 2; stroke: #000000" points="761.106,2142.84 758.746,2153.77 756.411,2148.69 750.947,2147.51 "/>
    <polygon style="fill: #000000" points="734.206,2176.36 736.566,2165.43 738.901,2170.51 744.365,2171.69 "/>
    <polygon style="fill: none; fill-opacity:0; stroke-width: 2; stroke: #000000" points="734.206,2176.36 736.566,2165.43 738.901,2170.51 744.365,2171.69 "/>
  </g>
  <g>
    <rect style="fill: #ffffff" x="488" y="2660.5" width="159.25" height="70"/>
    <rect style="fill: none; fill-opacity:0; stroke-width: 2; stroke: #000000" x="488" y="2660.5" width="159.25" height="70"/>
    <rect style="fill: #ffffff" x="468" y="2674.5" width="40" height="14"/>
    <rect style="fill: none; fill-opacity:0; stroke-width: 2; stroke: #000000" x="468" y="2674.5" width="40" height="14"/>
    <rect style="fill: #ffffff" x="468" y="2702.5" width="40" height="14"/>
    <rect style="fill: none; fill-opacity:0; stroke-width: 2; stroke: #000000" x="468" y="2702.5" width="40" height="14"/>
    <text style="fill: #000000;text-anchor:start;font-size:12.8;font-family:sanserif;font-style:normal;font-weight:normal" x="516" y="2686.4">
      <tspan x="516" y="2686.4">collect and forward</tspan>
    </text>
  </g>
  <g>
    <rect style="fill: #ffffff" x="377.38" y="1828.81" width="86.6" height="70"/>
    <rect style="fill: none; fill-opacity:0; stroke-width: 2; stroke: #000000" x="377.38" y="1828.81" width="86.6" height="70"/>
    <rect style="fill: #ffffff" x="357.38" y="1842.81" width="40" height="14"/>
    <rect style="fill: none; fill-opacity:0; stroke-width: 2; stroke: #000000" x="357.38" y="1842.81" width="40" height="14"/>
    <rect style="fill: #ffffff" x="357.38" y="1870.81" width="40" height="14"/>
    <rect style="fill: none; fill-opacity:0; stroke-width: 2; stroke: #000000" x="357.38" y="1870.81" width="40" height="14"/>
    <text style="fill: #000000;text-anchor:start;font-size:12.8;font-family:sanserif;font-style:normal;font-weight:normal" x="405.38" y="1854.71">
      <tspan x="405.38" y="1854.71">mockup</tspan>
    </text>
  </g>
  <g>
    <line style="fill: none; fill-opacity:0; stroke-width: 2; stroke: #000000" x1="567.772" y1="2534.78" x2="798.728" y2="2423.56"/>
    <polygon style="fill: #000000" points="561.015,2538.03 567.855,2529.19 567.772,2534.78 572.194,2538.2 "/>
    <polygon style="fill: none; fill-opacity:0; stroke-width: 2; stroke: #000000" points="561.015,2538.03 567.855,2529.19 567.772,2534.78 572.194,2538.2 "/>
    <polygon style="fill: #000000" points="805.485,2420.31 798.645,2429.15 798.728,2423.56 794.306,2420.14 "/>
    <polygon style="fill: none; fill-opacity:0; stroke-width: 2; stroke: #000000" points="805.485,2420.31 798.645,2429.15 798.728,2423.56 794.306,2420.14 "/>
  </g>
  <g>
    <line style="fill: none; fill-opacity:0; stroke-width: 2; stroke: #000000" x1="422.736" y1="1908.33" x2="556.944" y2="2529.48"/>
    <polygon style="fill: #000000" points="421.152,1901 428.151,1909.72 422.736,1908.33 418.377,1911.83 "/>
    <polygon style="fill: none; fill-opacity:0; stroke-width: 2; stroke: #000000" points="421.152,1901 428.151,1909.72 422.736,1908.33 418.377,1911.83 "/>
    <polygon style="fill: #000000" points="558.528,2536.81 551.529,2528.1 556.944,2529.48 561.303,2525.98 "/>
    <polygon style="fill: none; fill-opacity:0; stroke-width: 2; stroke: #000000" points="558.528,2536.81 551.529,2528.1 556.944,2529.48 561.303,2525.98 "/>
  </g>
  <text style="fill: #000000;text-anchor:start;font-size:12.7998;font-family:sanserif;font-style:normal;font-weight:normal" x="712.806" y="2227.1">
    <tspan x="712.806" y="2227.1"></tspan>
  </text>
</svg>
